<?xml version="1.0" standalone="no"?><!DOCTYPE svg PUBLIC "-//W3C//DTD SVG 1.1//EN" "http://www.w3.org/Graphics/SVG/1.1/DTD/svg11.dtd"><svg t="1533301763899" class="icon" style="" viewBox="0 0 1024 1024" version="1.1" xmlns="http://www.w3.org/2000/svg" p-id="15469" xmlns:xlink="http://www.w3.org/1999/xlink" width="35" height="35"><defs><style type="text/css"></style></defs><path d="M320.2194592 228.12472533l385.87308267-115.98541866 187.58040426 649.74954346-395.42935573 99.41607254z" fill="#FFFFFF" p-id="15470"></path><path d="M943.1497824 806.8187488l-30.9808224-114.9064832-27.05042027-102.19047573-6.6277376-23.19708374-27.6669536-102.807008-2.77440213-10.48107413-27.05042027-102.80700907-5.00933653-17.64827946-25.97148587-96.71873707-39.22696213-146.4267744c-6.08827093-23.19708373-30.36428907-36.99202667-53.5613728-30.9808224L306.5786496 163.6198784c-23.7365504 6.08827093-37.60856107 29.82482133-30.9808224 53.63843947l14.950944 56.33577386 36.99202667 138.7201024L371.7770976 577.00578133l64.65898027 242.60604374 30.9808224 114.3670176c6.62773867 23.7365504 30.36428907 37.60856107 54.1779072 31.52028906l390.11175146-104.9648768c23.7365504-6.1653376 37.5314944-30.5184224 31.44322347-53.71550613z m-109.97421333-51.403504l-300.02075307 80.68885973c-17.1088128 4.3928032-34.83415893-5.54880427-39.22696213-23.19708373L388.88590933 423.33473493c13.25547627 1.0789344 26.51095253 1.0789344 39.76642987 0.53946667l33.67815787-1.61840107c27.05042027-1.69546773 51.94297173-17.1088128 64.65898026-41.46189653 8.86267307-17.64827947 2.77440213-38.68749547-14.33441066-48.62910187l-120.45528747-67.43338346c-13.25547627-7.16720533-28.20642027-11.02054187-42.54083093-11.6370752 3.3138688-9.94160747 11.6370752-17.64827947 22.11814933-20.4226816l299.48128533-80.149392c17.64827947-5.00933653 35.3736256 5.54880427 39.76642987 22.65761706l20.4226816 76.83552214-39.22696213 10.4810752c-22.65761707 6.08827093-37.60856107 26.51095253-37.60856107 49.16856853 0 3.85333653 0.53946667 8.3232064 1.69546773 12.17654293 7.16720533 26.51095253 34.83415893 42.54083093 61.34511147 35.3736256l39.76642987-10.48107413 4.3928032 17.1088128-64.58191467 17.72534613c-26.51095253 7.16720533-42.54083093 34.29469227-35.3736256 61.34511147l1.69546773 5.54880427c7.16720533 26.51095253 34.83415893 42.54083093 61.34511147 35.3736256l64.65898133-17.1088128 2.77440107 10.48107413-34.2946912 9.4021408c-26.51095253 7.16720533-42.54083093 34.83415893-35.3736256 61.34511147l1.69546773 5.54880426c7.16720533 27.05042027 34.29469227 42.54083093 61.34511147 35.3736256l34.2946912-8.86267306 6.088272 23.19708373-34.29469227 9.40213973c-26.51095253 7.16720533-42.54083093 34.83415893-35.3736256 61.34511254l1.61840107 5.5488032c7.16720533 27.05042027 34.83415893 42.54083093 61.34511147 35.37362666L853.67531733 708.01921067l2.2349344 8.32320533c4.8552032 16.95467947-5.62587093 34.6800256-22.73468266 39.0728288z" fill="#AAD2F8" p-id="15471"></path><path d="M527.066544 380.793904c-12.7160096 24.27601813-37.60856107 39.7664288-64.65898027 41.46189653l-33.67815786 1.61840107c-13.25547627 0.53946667-26.51095253 0.53946667-39.7664288-0.53946667l-40.30589654-150.81957653c-1.69546773-6.62773867-1.0789344-13.25547627 1.0789344-19.34374827 14.33441067 0.53946667 29.28535467 4.3928032 42.54083094 11.6370752l120.45528853 67.43338347c17.03174613 9.8645408 23.12001707 30.82668907 14.3344096 48.5520352zM656.3845056 323.84159573c-1.0789344-3.85333653-1.69546773-8.3232064-1.69546773-12.17654293 0-22.65761707 14.950944-43.08029867 37.60856106-49.16856853l39.22696214-10.4810752 25.97148586 96.71873813-39.76642986 10.48107413c-26.5880192 7.16720533-54.17790613-8.86267307-61.34511147-35.3736256zM724.8968224 485.7587808c-26.51095253 7.16720533-54.17790613-8.86267307-61.34511147-35.3736256l-1.69546773-5.54880427c-7.16720533-27.05042027 8.86267307-54.17790613 35.3736256-61.34511146l64.65898133-17.64827947 27.6669536 102.807008-64.65898133 17.1088128zM724.28028907 555.350032l-1.69546774-5.54880427c-7.16720533-26.51095253 8.86267307-54.17790613 35.3736256-61.34511146l34.2946912-9.4021408 27.6669536 102.80700906-34.2946912 8.86267307c-27.05042027 7.244272-54.10083947-8.24613973-61.34511146-35.3736256zM853.59825067 707.86507627l-34.29469227 8.86267413c-26.51095253 7.16720533-54.17790613-8.3232064-61.34511147-35.37362667l-1.61840106-5.54880426c-7.16720533-26.51095253 8.86267307-54.17790613 35.3736256-61.34511147l34.29469226-9.40213973 27.58988694 102.807008z" fill="#FFFFFF" p-id="15472"></path><path d="M527.066544 380.793904c-12.7160096 24.27601813-37.60856107 39.7664288-64.65898027 41.46189653l-33.67815786 1.61840107c-13.25547627 0.53946667-26.51095253 0.53946667-39.7664288-0.53946667-7.706672-1.0789344-15.49041173-2.23493547-23.19708374-3.85333653l-38.1480288-7.16720427L371.85416427 577.00578133l65.198448 242.06657707-0.53946774 0.53946667c-7.706672 8.86267307-81.76779307 93.40486827-135.9456992 135.40623253-17.64827947 13.79494293-42.54083093 12.7160096-59.64964373-2.2349344l-166.849456-144.80837333c-13.79494293-11.6370752-13.79494293-32.59922347-0.53946667-44.7757664l156.90784854-143.11290454c7.706672-7.16720533 11.02054187-17.64827947 9.40213973-28.20642026l-20.96214827-110.51368107c-3.85333653-19.3437472-6.08827093-39.22696213-6.08827093-59.11017707 0-49.1685696 20.96214827-96.1792704 56.95230827-129.85742826l17.10881173-15.49041067c1.0789344-1.0789344 2.23493547-2.23493547 3.85333653-3.31386987 16.56934507-13.79494293 37.60856107-20.96214827 59.11017707-20.4226816 14.33441067 0.53946667 29.28535467 4.3928032 42.54083093 11.6370752l120.45528854 67.43338347c16.95467947 9.8645408 23.0429504 30.82668907 14.25734293 48.5520352zM876.79533333 278.52636267c0 22.11814933-14.33441067 42.00136427-36.99202666 48.0896352l-23.7365504 6.08827093-58.57070934 16.0298784-39.76642986 10.48107413c-26.51095253 7.16720533-54.17790613-8.86267307-61.34511147-35.3736256-1.0789344-3.85333653-1.69546773-8.3232064-1.69546773-12.17654293 0-22.65761707 14.950944-43.08029867 37.60856106-49.16856853l39.22696214-10.4810752 58.57070933-16.0298784 23.7365504-6.08827094c27.05042027-7.16720533 54.17790613 8.3232064 61.34511147 35.37362667 1.0789344 4.3928032 1.61840107 8.86267307 1.61840106 13.25547627zM878.49080213 444.83635093l-30.36428906 8.3232064-58.57070934 15.49041067-64.65898133 17.1088128c-26.51095253 7.16720533-54.17790613-8.86267307-61.34511147-35.3736256l-1.69546773-5.54880427c-7.16720533-27.05042027 8.86267307-54.17790613 35.3736256-61.34511146l64.65898133-17.64827947 59.110176-15.49041173 30.36428907-8.3232064c26.51095253-7.16720533 54.17790613 8.86267307 61.34511147 35.37362666l1.0789344 6.08827094c7.244272 26.5880192-8.24613973 54.17790613-35.29655894 61.34511146zM902.7668192 559.81990187l-24.27601707 6.6277376-58.5707104 15.49041173-34.2946912 8.86267307c-27.05042027 7.16720533-54.17790613-8.3232064-61.34511146-35.3736256l-1.69546774-5.54880427c-7.16720533-26.51095253 8.86267307-54.17790613 35.3736256-61.34511147l34.2946912-9.4021408 58.5707104-15.49041066 24.27601707-6.62773867c26.51095253-7.16720533 54.17790613 8.86267307 61.34511147 35.37362667l1.6954688 6.08827093c7.244272 26.51095253-8.7856064 54.17790613-35.37362667 61.34511147zM918.7966976 690.2167968l-6.6277376 1.61840107-58.57070933 16.0298784-34.29469227 8.86267413c-26.51095253 7.16720533-54.17790613-8.3232064-61.34511147-35.37362667l-1.61840106-5.54880426c-7.16720533-26.51095253 8.86267307-54.17790613 35.3736256-61.34511147l34.29469226-9.40213973 59.110176-15.49041174 6.08827094-1.61840106c27.05042027-7.16720533 54.17790613 8.86267307 61.34511253 35.3736256l1.61840107 5.54880426c7.16720533 27.05042027-8.7856064 54.17790613-35.37362667 61.34511147z" fill="#0FAAFF" p-id="15473" data-spm-anchor-id="a313x.7781069.0.i13" class="selected"></path></svg>