<?xml version="1.0" standalone="no"?><!DOCTYPE svg PUBLIC "-//W3C//DTD SVG 1.1//EN" "http://www.w3.org/Graphics/SVG/1.1/DTD/svg11.dtd"><svg t="1533303884768" class="icon" style="" viewBox="0 0 1024 1024" version="1.1" xmlns="http://www.w3.org/2000/svg" p-id="5949" xmlns:xlink="http://www.w3.org/1999/xlink" width="35" height="35"><defs><style type="text/css"></style></defs><path d="M716.09545636 96.48727717c132.70780794 0 240.70450684 99.75966253 240.70450684 223.31520786 0 38.43950299-10.98271516 75.96377974-31.11769292 109.82715142-30.20246662 49.42221811-78.7094585 86.03126862-137.28393924 103.42056757-15.55884645 4.5761313-27.45678784 6.40658382-38.43950299 6.40658382-25.62633533 0-45.76131308-20.13497775-45.76131308-45.76131308s20.13497775-45.76131308 45.76131308-45.76131307c1.83045253 0 5.49135757 0 10.06748889-1.83045255 39.35472924-10.98271516 70.47242217-33.86337166 87.86172111-64.0658383 11.8979414-19.21975149 17.38929897-40.26995552 17.389299-62.23538581 0-72.30287467-66.8115171-131.79258167-148.26665442-131.79258166-28.37201411 0-55.82880198 7.3218101-80.53991105 21.05020401-43.01563429 24.71110907-68.64196964 65.89629086-68.6419696 110.74237765v383.47980366c0 77.79423226-43.01563429 149.18188065-114.40328274 189.4518362-38.43950299 21.96543027-81.4551373 32.94814542-125.38599784 32.94814539-132.70780794 0-240.70450684-99.75966253-240.70450684-223.31520785 0-38.43950299 10.98271516-75.96377974 31.11769292-109.8271514 30.20246662-49.42221811 78.7094585-86.03126862 137.28393924-103.42056756 16.4740727-4.5761313 27.45678784-6.40658382 38.43950299-6.40658383 25.62633533 0 45.76131308 20.13497775 45.76131308 45.76131306s-20.13497775 45.76131308-45.76131308 45.7613131c-1.83045253 0-5.49135757 0-10.06748887 1.83045251-39.35472924 11.8979414-70.47242217 34.77859794-87.86172114 64.06583833-11.8979414 19.21975149-17.38929897 40.26995552-17.38929897 62.23538579 0 72.30287467 66.8115171 131.79258167 149.18188067 131.79258169 28.37201411 0 55.82880198-7.3218101 80.53991103-21.05020402 43.01563429-24.71110907 68.64196964-65.89629086 68.64196963-110.74237767V319.80248503c0-77.79423226 43.01563429-149.18188065 114.40328271-189.45183618 37.52427671-22.88065653 80.53991103-33.86337166 124.47077159-33.86337168z m-930.78510818 411.85181777c0 404.53000767 327.6510017 732.18100938 732.18100939 732.18100938s732.18100938-327.6510017 732.18100938-732.18100938-327.6510017-732.18100938-732.18100938-732.18100937-732.18100938 327.6510017-732.18100939 732.18100937z m-91.52262615 0c0-454.86745209 368.83618346-823.70363553 823.70363554-823.70363554s823.70363553 368.83618346 823.70363554 823.70363554-368.83618346 823.70363553-823.70363554 823.70363556-823.70363553-368.83618346-823.70363554-823.70363556z m0 0" fill="#7789DB" p-id="5950" data-spm-anchor-id="a313x.7781069.0.i1" class=""></path></svg>