<?xml version="1.0" standalone="no"?><!DOCTYPE svg PUBLIC "-//W3C//DTD SVG 1.1//EN" "http://www.w3.org/Graphics/SVG/1.1/DTD/svg11.dtd"><svg t="1533344209071" class="icon" style="" viewBox="0 0 1024 1024" version="1.1" xmlns="http://www.w3.org/2000/svg" p-id="10274" xmlns:xlink="http://www.w3.org/1999/xlink" width="35" height="35"><defs><style type="text/css"></style></defs><path d="M969.23446 233.078671v588.837931c0 33.740775-27.38277 61.123545-61.123545 61.123545H115.889085c-33.740775 0-61.123545-27.38277-61.123545-61.123545v-588.837931c0-33.740775 27.38277-61.123545 61.123545-61.123545h792.22183c33.740775 0 61.123545 27.38277 61.123545 61.123545z" fill="#0FAAFF" p-id="10275" data-spm-anchor-id="a313x.7781069.0.i5" class="selected"></path><path d="M914.46892 254.103436v546.716151c0 14.08876-11.415508 25.576519-25.576519 25.576518H135.107599c-14.08876 0-25.576519-11.415508-25.576519-25.576518V254.103436c0-14.08876 11.415508-25.576519 25.576519-25.576519h753.857052c14.08876 0.07225 25.504269 11.487758 25.504269 25.576519z" fill="#FFFFFF" p-id="10276"></path><path d="M728.352783 532.69964L641.07472 620.483454c-3.757003 3.757003-4.262753 9.753757-1.228251 14.088761l82.94306 120.007338L609.067946 651.912227 378.951528 447.083327c-4.407253-3.901503-11.054258-3.684753-15.172512 0.433501l-264.435193 264.435193c-2.095252 2.095252-3.251252 4.913004-3.251253 7.803006v101.366824c0 6.141254 4.985254 11.054258 11.054258 11.054259H916.853172c6.141254 0 11.054258-4.985254 11.054258-11.054259V742.730544c0-2.745502-1.011501-5.346504-2.817752-7.369505L744.392295 533.205391c-4.190503-4.840754-11.560008-4.985254-16.039512-0.505751z" fill="#0FAAFF" p-id="10277" data-spm-anchor-id="a313x.7781069.0.i4" class="selected"></path></svg>