<?xml version="1.0" standalone="no"?><!DOCTYPE svg PUBLIC "-//W3C//DTD SVG 1.1//EN" "http://www.w3.org/Graphics/SVG/1.1/DTD/svg11.dtd"><svg t="1533344056512" class="icon" style="" viewBox="0 0 1024 1024" version="1.1" xmlns="http://www.w3.org/2000/svg" p-id="5479" xmlns:xlink="http://www.w3.org/1999/xlink" width="35" height="35"><defs><style type="text/css"></style></defs><path d="M500.58674938 507.29245719L154.19290156 291.49058094c-13.75008844-8.60227219-13.2082125-28.78713 1.01601656-36.57658969L501.60276594 64.85119625c6.36703594-3.45445594 14.02102594-3.45445594 20.38806187 0l346.39384688 190.062795c14.22422906 7.78945875 14.766105 28.04205188 1.01601656 36.57658969L523.00684438 507.29245719c-6.84117656 4.26726844-15.5789175 4.26726844-22.42009501 0z" fill="#73A8F5" p-id="5480"></path><path d="M98.17653312 743.14372438l0.74507813-388.18598813c0-16.52719969 18.08509125-26.61962906 32.17385156-18.08509125l346.46158219 209.97671625c6.29930156 3.79312781 10.16016375 10.63430438 10.22789812 18.01735687l2.370705 375.58738501c0.13546875 16.32399656-17.47548187 26.61962906-31.63197656 18.62696625l-349.57736531-197.37811313c-6.70570781-3.79312781-10.8375075-10.90524281-10.76977313-18.55923187z" fill="#ffcd00" p-id="5481"></path><path d="M925.89120125 743.14372438l-0.74507812-388.18598813c0-16.52719969-18.08509125-26.61962906-32.17385157-18.08509125l-346.46158218 209.97671625c-6.29930156 3.79312781-10.16016375 10.63430438-10.22789813 18.01735687l-2.370705 375.58738501c-0.13546875 16.32399656 17.47548187 26.61962906 31.63197656 18.62696625l349.57736531-197.37811313c6.63797344-3.79312781 10.76977313-10.90524281 10.76977313-18.55923187z" fill="#FF2851" p-id="5482"></path></svg>