<?xml version="1.0" standalone="no"?><!DOCTYPE svg PUBLIC "-//W3C//DTD SVG 1.1//EN" "http://www.w3.org/Graphics/SVG/1.1/DTD/svg11.dtd"><svg t="1533344793865" class="icon" style="" viewBox="0 0 1024 1024" version="1.1" xmlns="http://www.w3.org/2000/svg" p-id="21803" xmlns:xlink="http://www.w3.org/1999/xlink" width="35" height="35"><defs><style type="text/css"></style></defs><path d="M507.248 858.88c-188.96 0-342.672-153.712-342.672-342.672 0-188.96 153.712-342.672 342.672-342.672S849.92 327.248 849.92 516.192c0 188.96-153.712 342.688-342.672 342.688z m0-605.36c-144.832 0-262.672 117.84-262.672 262.672S362.416 778.88 507.248 778.88c144.848 0 262.672-117.84 262.672-262.672s-117.824-262.688-262.672-262.688z" fill="#0FAAFF" p-id="21804" data-spm-anchor-id="a313x.7781069.0.i13" class="selected"></path><path d="M343.728 294.208l-86.32-86.32-58.448 58.448 86.32 86.32a276.928 276.928 0 0 1 58.448-58.448zM507.264 240.176c14.08 0 27.792 1.392 41.328 3.424v-122.08H465.92v122.096a275.04 275.04 0 0 1 41.344-3.44zM729.232 352.656l86.336-86.32-58.464-58.448-86.336 86.304a277.824 277.824 0 0 1 58.464 58.464zM783.248 516.176c0 14.08-1.392 27.808-3.44 41.328h122.112l-0.032-82.64h-122.08c2.048 13.504 3.44 27.232 3.44 41.312zM285.264 679.68l-86.32 86.32 58.464 58.464 86.32-86.336a275.888 275.888 0 0 1-58.464-58.448zM231.264 516.176c0-14.08 1.392-27.808 3.424-41.328H112.592v82.64h122.096c-2.032-13.504-3.424-27.2-3.424-41.312zM507.264 792.192c-14.08 0-27.808-1.392-41.328-3.424v122.08h82.656v-122.08c-13.536 2.032-27.248 3.424-41.328 3.424zM670.8 738.16l86.336 86.32 58.432-58.416-86.336-86.336a278.288 278.288 0 0 1-58.432 58.432z" fill="#0FAAFF" p-id="21805" data-spm-anchor-id="a313x.7781069.0.i14" class="selected"></path></svg>