<?xml version="1.0" standalone="no"?><!DOCTYPE svg PUBLIC "-//W3C//DTD SVG 1.1//EN" "http://www.w3.org/Graphics/SVG/1.1/DTD/svg11.dtd"><svg t="1533348197489" class="icon" style="" viewBox="0 0 1024 1024" version="1.1" xmlns="http://www.w3.org/2000/svg" p-id="8089" data-spm-anchor-id="a313x.7781069.0.i3" xmlns:xlink="http://www.w3.org/1999/xlink" width="35" height="35"><defs><style type="text/css"></style></defs><path d="M544 896h64v64h-64v-64zM416 416V64H64v352h64v64h64v-64h224z m-288-64V128h224v224H128z" fill="#969696" p-id="8090" data-spm-anchor-id="a313x.7781069.0.i4" class="selected"></path><path d="M192 192h96v96h-96v-96zM608 64v352h352V64H608z m288 288H672V128h224v224z" fill="#969696" p-id="8091" data-spm-anchor-id="a313x.7781069.0.i7" class="selected"></path><path d="M736 192h96v96h-96v-96zM192 736h96v96h-96v-96zM64 480h64v64H64v-64zM192 480h64v64h-64v-64z" fill="#969696" p-id="8092" data-spm-anchor-id="a313x.7781069.0.i5" class="selected"></path><path d="M256 608H64v352h352V608h-96v-64h-64v64z m96 64v224H128V672h224zM480 96h64v96h-64V96zM480 256h64v64h-64v-64zM672 480H544v-96h-64v96H320v64h288v64h64v-64zM672 608h64v64h-64v-64zM480 608h64v96h-64v-96zM480 768h64v128h-64V768zM608 704h64v192h-64V704zM800 608h160v64H800v-64zM896 480h64v64h-64v-64zM736 480h128v64H736v-64zM736 704h64v64h-64v-64zM896 768h-32v64h64v-64h32v-64h-64zM736 832h64v64h-64v-64zM800 896h160v64H800v-64z" fill="#969696" p-id="8093" data-spm-anchor-id="a313x.7781069.0.i6" class="selected"></path></svg>