<?xml version="1.0" standalone="no"?><!DOCTYPE svg PUBLIC "-//W3C//DTD SVG 1.1//EN" "http://www.w3.org/Graphics/SVG/1.1/DTD/svg11.dtd"><svg t="1533217747849" class="icon" style="" viewBox="0 0 1024 1024" version="1.1" xmlns="http://www.w3.org/2000/svg" p-id="4057" xmlns:xlink="http://www.w3.org/1999/xlink" width="48" height="48"><defs><style type="text/css"></style></defs><path d="M57.62048 947.52768l-42.37312-27.07968-2.5344-7.74656c-1.28-3.82976-12.09856-38.52288-0.8448-74.7008l1.14688-3.68128 2.2272-3.05664c26.21952-35.9424 91.84768-71.99744 161.34144-110.14656l0.31744-0.16896c63.92832-35.10784 160.4096-88.09984 161.01888-116.51584l0.07168-26.61888a0.50176 0.50176 0 0 0-0.11776-0.3072c-60.73344-58.63424-94.1824-139.08992-94.1824-226.5088 0-135.74656 25.9072-274.51392 218.0096-274.53952 192.09216 0.0256 217.99936 138.79296 217.99936 274.53952 0 87.41888-33.43872 167.84384-94.16704 226.48832a0.36864 0.36864 0 0 0-0.11776 0.29184l0.1024 27.15136c0.57856 27.90912 97.11616 80.94208 160.98304 116.03968l0.8704 0.4864c69.22752 38.05184 134.59968 73.99424 160.74752 109.8496l2.304 3.15904 1.10592 3.5328c11.2128 36.21376 0.4096 70.89152-0.85504 74.72128l-2.54464 7.74656-42.3936 27.07968H57.62048v-0.01536z m326.0928-342.5792c-1.17248 55.35232-86.23104 102.06208-184.74496 156.14976l-0.20992 0.11264c-59.77088 32.83968-121.57952 66.77504-144.09216 94.0032a0.41472 0.41472 0 0 0-0.09728 0.15872c-3.39968 14.09536-1.536 28.38016-0.10752 35.64032 0.02048 0.10752 0.08704 0.2048 0.17408 0.27648l16.26624 10.39872a0.44032 0.44032 0 0 0 0.22016 0.0768H852.224a0.44032 0.44032 0 0 0 0.22016-0.0768l16.32256-10.39872a0.37888 0.37888 0 0 0 0.1792-0.27648c1.69472-8.96512 3.04128-22.43072-0.13312-35.64032a0.52736 0.52736 0 0 0-0.08704-0.15872c-22.60992-27.2896-84.44416-61.27104-144.256-94.1312l-0.12288-0.07168c-98.45248-54.07232-183.49056-100.77184-184.59648-155.58144l-0.15872-47.83616 7.57248-6.84544c55.96672-50.52928 86.78912-121.45152 86.78912-199.72096 0-144.88576-28.19072-228.77184-172.24192-228.79232-144.07168 0.02048-172.25728 83.90656-172.25728 228.79232 0 78.30016 30.81728 149.22752 86.76864 199.71072l7.56736 6.84544-0.0768 47.36512z" p-id="4058" fill="#8a8a8a"></path><path d="M867.58912 953.94816H51.22048v-2.91328l-41.34912-26.42432-3.24608-9.91744c-1.3312-3.97824-12.7744-40.35072-0.8704-78.592l1.4592-4.68992 2.85184-3.9168c27.09504-37.13536 93.31712-73.49248 163.4304-111.98464 55.2448-30.336 157.48608-86.48704 158.01856-111.21152l0.06144-24.00256c-60.70272-59.36128-94.29504-140.83072-94.29504-229.2992 0-138.9056 26.66496-280.91392 224.4096-280.93952 197.73952 0.0256 224.39936 142.03392 224.39936 280.93952 0 88.27392-33.4592 169.6-94.27456 229.2992l0.09216 24.60672c0.50176 24.08448 102.64576 80.22016 157.52192 110.37696l1.0496 0.58368c69.82144 38.37952 135.80288 74.64448 162.80064 111.67232l2.92864 4.00896 1.41824 4.54656c11.79648 38.09792 0.44544 74.5984-0.89088 78.63296l-3.2512 9.9072-45.89568 29.31712z m-808.06912-12.8H863.8464l38.89664-24.84736 1.83296-5.5808c1.2032-3.64544 11.43808-36.54656 0.8192-70.82496l-0.78336-2.5088-1.67936-2.30912c-25.3184-34.71872-90.09152-70.31808-158.65856-108.01152l-0.90112-0.50688c-89.56416-49.21856-163.6608-92.288-164.27008-121.49248l-0.10752-30.03904 2.14528-2.19648c59.40224-57.3696 92.14976-136.17152 92.14976-221.82912 0-132.5824-25.1392-268.11392-211.59936-268.13952-186.4704 0.0256-211.6096 135.56224-211.6096 268.13952 0 85.6832 32.75264 164.49024 92.22656 221.90592l1.95584 1.88928 0.11776 3.0208-0.07168 26.63424c-0.64 29.81888-74.8032 72.93952-164.34176 122.112-69.1456 37.95456-134.15424 73.6512-159.5648 108.47744l-1.59744 2.19648-0.83456 2.66752c-10.89024 35.00544 0.32256 69.3248 0.80384 70.76864l1.83808 5.61152 38.90688 24.86272z m792.704-32.97792H69.31968l-1.76128-1.01888-18.77504-12.30336-0.6144-2.68288c-1.50528-7.66464-3.5072-22.9632 0.18432-38.28224l0.384-1.59744 1.2032-1.37728c23.04512-27.89376 85.26336-62.07488 145.42848-95.13472l0.52224-0.28672c96.76288-53.13024 180.33664-99.01568 181.4272-150.67648l0.06656-44.38528-5.4528-4.93568C314.624 503.78752 283.0592 431.17568 283.0592 351.03232c0-145.18272 29.88544-235.17184 178.65728-235.19232 148.75648 0.02048 178.64192 90.0096 178.64192 235.19232 0 80.09216-31.56992 152.70912-88.89856 204.47232l-5.44768 4.93056 0.14848 44.9792c1.02912 51.00032 84.5568 96.87552 181.2736 149.9904 60.45184 33.21344 122.8288 67.48672 146.23232 95.72352l0.67072 0.80896 0.71168 1.94048c3.44576 14.33088 2.01216 28.7488 0.19968 38.3232l-0.50176 2.64192-2.42176 1.77152-18.00704 11.47392-2.09408 0.08192z m-779.33056-12.8h777.58464l12.6208-8.04864c1.29536-7.97184 2.048-18.60608-0.19968-29.08672-22.4768-26.1376-82.97472-59.38176-141.50656-91.53536-100.3264-55.10144-186.85952-102.62016-188.04224-161.13152l-0.16896-50.80064 9.69216-8.7552c54.6048-49.3056 84.67968-118.54848 84.67968-194.97472 0-144.21504-26.42944-222.37184-165.84192-222.39232-139.42272 0.02048-165.85728 78.17728-165.85728 222.39232 0 76.47232 30.06464 145.70496 84.6592 194.95936l9.68192 8.76032-0.08192 50.2016c-1.24928 59.18208-87.82336 106.71104-188.06272 161.75104l-3.59936-5.3248 3.08224 5.61152c-58.33728 32.05632-118.63552 65.18272-141.056 91.26912-2.38592 10.96192-1.33632 22.10816-0.1792 29.05088l12.5952 8.05376z" p-id="4059" fill="#8a8a8a"></path><path d="M461.69088 76.87168c191.73888 0.02048 217.58464 138.58816 217.58464 274.12992 0 87.31136-33.39776 167.6288-94.03904 226.18112a0.8448 0.8448 0 0 0-0.256 0.59392l0.09728 27.1616c0.5888 28.13952 97.2544 81.23392 161.2032 116.37248l0.87552 0.4864c69.18144 38.02624 134.52288 73.95328 160.59392 109.7216l2.23232 3.072 1.1264 3.51744c11.1872 36.096 0.4096 70.66112-0.85504 74.48064l-2.48832 7.59296-42.17344 26.92608H57.74336l-42.14272-26.92608-2.49856-7.59296c-1.26976-3.81952-12.05248-38.40512-0.82944-74.44992l1.11104-3.54304 2.19648-3.072c26.16832-35.86048 91.76576-71.87968 161.19808-110.02368l0.32256-0.1792 0.08192-0.04096c63.93344-35.10784 160.54272-88.17152 161.16224-116.8384l0.06656-26.61888a0.83968 0.83968 0 0 0-0.24576-0.5888c-30.24384-29.2096-53.72928-63.61088-69.80096-102.23616-16.08704-38.67648-24.2432-80.39424-24.2432-123.99616-0.0256-135.53664 25.82528-274.10944 217.56928-274.12992m-78.29504 480.90624l-0.1024 47.15008c-1.14688 55.13216-86.13376 101.79072-184.52992 155.82208l-0.20992 0.10752c-59.80672 32.85504-121.64096 66.82624-144.2048 94.11584a0.7424 0.7424 0 0 0-0.16384 0.32256c-3.42528 14.16704-1.55648 28.52352-0.12288 35.81952 0.04608 0.22528 0.17408 0.4096 0.36352 0.52736l16.26112 10.41408a0.80896 0.80896 0 0 0 0.44032 0.11776H852.224c0.14848 0 0.31232-0.0512 0.44032-0.11776l16.32256-10.41408a0.82432 0.82432 0 0 0 0.36864-0.53248c1.69472-9.00096 3.05152-22.51776-0.14848-35.80928a1.11104 1.11104 0 0 0-0.15872-0.32256c-22.656-27.35104-84.53632-61.34784-144.37376-94.22336l-0.12288-0.08192c-98.34496-54.01088-183.28064-100.6592-184.38656-155.2128l-0.15872-47.68256 7.43936-6.7072c56.05376-50.60608 86.92736-121.64608 86.92736-200.02304 0-145.14688-28.25728-229.17632-172.65152-229.20192-69.4784 0.01024-114.13504 19.18464-140.50304 60.3392-22.53824 35.18464-32.15872 85.67808-32.15872 168.85248 0 78.40768 30.86336 149.4528 86.90688 200.01792l7.42912 6.72256m78.29504-481.72544c-192.47104 0.03072-218.41408 139.01312-218.41408 274.95424 0 87.87968 33.38752 167.99744 94.30016 226.816l-0.0768 26.61888c-0.60416 28.20096-96.9984 81.1264-160.81408 116.16256C107.0336 758.86592 41.216 794.9824 14.8992 831.04768l-2.28352 3.16416-1.13664 3.67616c-11.27424 36.21888-0.44032 71.10144 0.83456 74.97728l2.59072 7.85408 42.58816 27.22816h808.33024l42.61888-27.22816 2.5856-7.85408c1.28-3.87584 12.0832-38.75328 0.86528-74.99264l-1.16736-3.65568-2.29888-3.16416c-26.30144-36.0704-92.10368-72.16128-161.7408-110.44352-63.79008-35.04128-160.2048-88.0128-160.78848-115.67104l-0.08704-27.15136c60.84608-58.752 94.28992-138.87488 94.28992-226.77504 0.00512-135.95136-25.91744-274.93376-218.40896-274.95936zM71.12704 901.36576l-16.256-10.40896c-1.59232-8.12032-3.16928-21.86752 0.10752-35.46112 22.49728-27.19232 84.3264-61.14816 144.1792-94.01344 98.62656-54.15936 183.78752-100.95104 184.95488-156.52352l0.09728-47.52896-7.7056-6.95808c-55.87456-50.41664-86.63552-121.22624-86.63552-199.41888 0-144.61952 28.1344-228.352 171.84256-228.37248 143.72352 0.0256 171.83232 83.74784 171.83232 228.37248 0 78.17216-30.81216 149.00736-86.66112 199.41888l-7.71072 6.95808 0.15872 48.0256c1.12128 55.08096 86.32832 101.85728 184.92928 156.02176 59.86304 32.88064 121.62048 66.82624 144.14336 94.01344 3.28192 13.62432 1.67424 27.32032 0.128 35.47136l-16.31744 10.39872H71.12704v0.00512z" p-id="4060" fill="#8a8a8a"></path><path d="M867.69664 954.34752H55.62368l-46.08512-29.4656-3.3024-10.01472c-1.34144-4.0704-12.7232-40.8064-0.86528-78.87872l1.43872-4.66944 2.89792-4.01408c27.12576-37.18144 93.36832-73.56928 163.49696-112.09216 55.27552-30.35136 157.36832-86.41024 157.89568-110.90944l0.06656-23.78752C270.336 520.73984 236.8768 439.35744 236.8768 351.00672c0-139.1104 26.71104-281.32352 224.81408-281.35424 198.10304 0.03072 224.81408 142.24896 224.81408 281.35936 0 88.33024-33.46432 169.70752-94.27968 229.46304l0.0768 24.43776c0.50688 23.8592 102.61504 79.9488 157.47072 110.08l0.86016 0.47104c69.90848 38.43584 135.94112 74.74176 162.9696 111.81568l2.91328 4.00896 1.47968 4.6336c11.84256 38.26688 0.45056 74.89536-0.89088 78.94528l-3.29728 10.01472-46.11072 29.4656zM59.61728 940.6976h804.10112l38.67648-24.68864 1.78176-5.4272c1.2032-3.64032 11.4176-36.39296 0.8192-70.58944l-0.78848-2.47808-1.62816-2.24256c-25.2416-34.62656-89.96352-70.20544-158.49984-107.86816l-0.896-0.49664c-89.69216-49.29024-163.88096-92.42112-164.50048-121.84064l-0.09728-27.27424c0-1.96608 0.80384-3.85536 2.2016-5.21216 59.392-57.344 92.09344-136.03328 92.09344-221.58336 0-132.3776-25.088-267.70944-211.18464-267.72992-84.90496 0.01024-142.208 27.19232-175.18592 83.0976-31.91296 54.10304-35.99872 127.08352-35.9936 184.62208 0 42.74688 7.99232 83.6352 23.7568 121.53856a296.9344 296.9344 0 0 0 68.33664 100.08576c1.42848 1.42336 2.2016 3.29216 2.2016 5.1968l-0.06656 26.63424c-0.64 30.0544-74.86976 73.22624-164.48 122.43456l-0.4608-0.68096-0.47616 0.26624 0.39424 0.7168c-68.73088 37.76-133.65248 73.42592-158.96576 108.1088l-1.5616 2.18624-0.80384 2.56512c-10.64448 34.2016-0.4096 66.90304 0.7936 70.51776l1.79712 5.44768 38.63552 24.69376z m792.60672-32.12288H69.25312l-2.0224-1.13152-16.26112-10.41408a7.13728 7.13728 0 0 1-3.18976-4.6592c-1.53088-7.81824-3.53792-23.18848 0.1792-38.5792l0.3584-1.47968 1.152-1.47968c23.28576-28.16512 85.66784-62.43328 145.9968-95.58016 96.896-53.20192 180.35712-99.03104 181.4272-150.45632l0.09216-44.17536-5.3248-4.80768C314.26048 504.0128 282.6496 431.29344 282.6496 351.04256c0-84.48 9.92256-136.0128 33.17248-172.30848 27.65824-43.16672 74.01984-63.27808 145.8944-63.28832 149.09952 0.0256 179.05152 90.16832 179.05152 235.60192 0 80.21504-31.62112 152.94464-89.0368 204.7744l-5.31968 4.79744 0.14848 44.82048c1.02912 50.74944 84.45952 96.56832 181.06368 149.62688l0.49664 0.30208c59.99616 32.9472 122.41408 67.23584 145.85344 95.52896l0.85504 1.03424 0.53248 1.6128c3.52768 14.63808 2.09408 29.12256 0.28672 38.74816-0.4864 2.14528-1.68448 3.81952-3.34336 4.82304l-17.7664 11.3408-2.31424 0.11776z m-791.552-21.504l12.32384 7.89504 777.35936-0.01024 12.3648-7.87968c1.25952-7.80288 2.00192-18.29376-0.20992-28.65152-22.58432-26.12736-82.93888-59.27424-141.33248-91.34592-100.45952-55.18336-187.05408-102.75328-188.25216-161.50016l-0.16896-50.99008 9.8304-8.87296c54.52288-49.21856 84.55168-118.35392 84.55168-194.66752 0-143.94368-26.36288-221.952-165.43232-221.97248-139.06944 0.02048-165.43744 78.0288-165.43744 221.96736 0 76.35456 30.01856 145.48992 84.52096 194.66752l9.82016 8.86784-0.1024 50.38592c-1.24928 59.41248-87.92064 107.008-188.27264 162.11968-58.43456 32.08704-118.83008 65.24928-141.3632 91.34592-2.31424 10.86976-1.3312 21.77024-0.19968 28.64128z" p-id="4061" fill="#8a8a8a"></path><path d="M758.43584 314.63936h258.75968v46.5664h-258.75968z" p-id="4062" fill="#8a8a8a"></path><path d="M1023.59552 367.60576h-271.55968V308.23936h271.55968v59.3664z m-258.75968-12.8h245.95968v-33.7664h-245.95968v33.7664z" p-id="4063" fill="#8a8a8a"></path><path d="M1016.78592 315.0592v45.7472h-257.94048v-45.7472h257.94048m0.80896-0.82944h-259.56864v47.38048h259.57376l-0.00512-47.38048z" p-id="4064" fill="#8a8a8a"></path><path d="M1024 368.01024h-272.37376V307.82976h272.36864L1024 368.01024z m-258.75456-13.60384h245.14048v-32.9472h-245.14048v32.9472z" p-id="4065" fill="#8a8a8a"></path><path d="M805.97504 479.47776h211.22048v46.54592h-211.22048z" p-id="4066" fill="#8a8a8a"></path><path d="M1023.59552 532.42368h-224.02048V473.07776h224.02048v59.34592z m-211.22048-12.8h198.42048v-33.74592h-198.42048v33.74592z" p-id="4067" fill="#8a8a8a"></path><path d="M1016.78592 479.88736v45.73184h-210.40128v-45.73184h210.40128m0.80896-0.81408h-212.04992v47.36h212.04992v-47.36z" p-id="4068" fill="#8a8a8a"></path><path d="M1023.99488 532.83328h-224.84992v-60.16h224.84992v60.16z m-211.21024-13.6192h197.60128v-32.93184h-197.60128v32.93184z" p-id="4069" fill="#8a8a8a"></path><path d="M876.26752 644.92032h140.92288v45.9776h-140.92288z" p-id="4070" fill="#8a8a8a"></path><path d="M1023.59552 697.29792h-153.72288v-58.7776h153.72288v58.7776z m-140.928-12.8h128.12288v-33.1776h-128.12288v33.1776z" p-id="4071" fill="#8a8a8a"></path><path d="M1016.78592 645.3248v45.16352h-140.1088v-45.16352h140.1088m0.80896-0.82432h-141.73696v46.81216h141.73696v-46.81216z" p-id="4072" fill="#8a8a8a"></path><path d="M1023.99488 697.70752h-154.53696v-59.61216h154.53696v59.61216z m-140.91776-13.6192h127.3088v-32.36352h-127.3088v32.36352z" p-id="4073" fill="#8a8a8a"></path></svg>