<?xml version="1.0" standalone="no"?><!DOCTYPE svg PUBLIC "-//W3C//DTD SVG 1.1//EN" "http://www.w3.org/Graphics/SVG/1.1/DTD/svg11.dtd"><svg t="1533202167293" class="icon" style="" viewBox="0 0 1024 1024" version="1.1" xmlns="http://www.w3.org/2000/svg" p-id="12092" xmlns:xlink="http://www.w3.org/1999/xlink" width="48" height="48"><defs><style type="text/css"></style></defs><path d="M859.69723 323.064805 557.373538 474.687948C553.606819 476.57767 549.534691 477.5448 545.4562 477.589339 541.339533 477.633878 537.203778 476.736737 533.36707 474.897917L231.33606 329.955609C217.159964 323.14752 210.930881 305.624644 217.427198 290.805916 223.923514 275.99355 240.676504 269.503596 254.871688 276.305322L508.838861 398.182842C531.547338 409.082148 558.022533 408.85309 580.540128 397.559298L835.213559 269.828094C849.281494 262.778222 866.161736 268.981855 872.912559 283.679692 879.669748 298.383891 873.752437 316.008571 859.69723 323.064805L859.69723 323.064805ZM960.546027 312.890847C959.432553 212.551067 877.194656 132.107451 776.848517 133.220923L287.474163 138.629218C187.134383 139.74269 106.690765 221.980589 107.797876 322.320369L111.615495 667.388681C112.728968 767.728465 194.966867 848.17208 295.306647 847.064968L784.687363 841.650315C885.027141 840.543202 965.470756 758.298943 964.357283 657.959159L960.546027 312.890847Z" p-id="12093" fill="#f4f4ec"></path></svg>