<?xml version="1.0" standalone="no"?><!DOCTYPE svg PUBLIC "-//W3C//DTD SVG 1.1//EN" "http://www.w3.org/Graphics/SVG/1.1/DTD/svg11.dtd"><svg t="1533202222535" class="icon" style="" viewBox="0 0 1024 1024" version="1.1" xmlns="http://www.w3.org/2000/svg" p-id="16648" xmlns:xlink="http://www.w3.org/1999/xlink" width="48" height="48"><defs><style type="text/css"></style></defs><path d="M451.41504 653.95712L296.96 486.4l25.6-25.6 128.85504 92.16L721.92 363.52l20.48 25.6-290.98496 264.83712z m404.98688 305.7664h-206.63808a34.41664 34.41664 0 0 1-34.44224-34.44224 34.4064 34.4064 0 0 1 34.44224-34.44224h206.63808a34.4576 34.4576 0 0 0 34.44224-34.43712v-172.20608a34.4064 34.4064 0 0 1 34.44224-34.43712 34.40128 34.40128 0 0 1 34.432 34.43712v172.20608c0.00512 56.96-46.35648 103.3216-103.31648 103.3216z m-516.59776 0H167.59808c-56.95488 0-103.31648-46.3616-103.31648-103.3216v-172.20608a34.432 34.432 0 0 1 34.43712-34.43712 34.432 34.432 0 0 1 34.44224 34.43712v172.20608a34.46784 34.46784 0 0 0 34.43712 34.432h172.20096a34.43712 34.43712 0 0 1 34.44224 34.44224 34.43712 34.43712 0 0 1-34.43712 34.44736zM98.72384 374.23104a34.44224 34.44224 0 0 1-34.43712-34.432V167.59808c0-56.97024 46.35648-103.3216 103.31136-103.3216h172.20096a34.4576 34.4576 0 0 1 34.44224 34.43712 34.45248 34.45248 0 0 1-34.44224 34.43712H167.59808c-18.97472 0-34.43712 15.4624-34.43712 34.44736v172.19584a34.44224 34.44224 0 0 1-34.43712 34.43712z m826.56256 0a34.42176 34.42176 0 0 1-34.44224-34.432V167.59808a34.47808 34.47808 0 0 0-34.44224-34.44736h-206.63808a34.42688 34.42688 0 0 1-34.44224-34.432 34.432 34.432 0 0 1 34.44224-34.44224h206.63808c56.96 0 103.31648 46.35136 103.31648 103.3216v172.20096a34.41152 34.41152 0 0 1-34.432 34.432z" fill="#f4f4ec" p-id="16649"></path></svg>