<?xml version="1.0" standalone="no"?><!DOCTYPE svg PUBLIC "-//W3C//DTD SVG 1.1//EN" "http://www.w3.org/Graphics/SVG/1.1/DTD/svg11.dtd"><svg t="1533209524955" class="icon" style="" viewBox="0 0 1024 1024" version="1.1" xmlns="http://www.w3.org/2000/svg" p-id="20399" xmlns:xlink="http://www.w3.org/1999/xlink" width="48" height="48"><defs><style type="text/css"></style></defs><path d="M941.568 776.704c-75.776-92.672-109.056-241.152-109.056-379.904 0-132.096-42.496-320-285.696-330.752-1.024 0-2.048-1.024-2.048-2.048v-30.72c0-15.872-8.192-27.648-22.528-31.232C500.224-5.12 478.208 12.8 478.208 35.84v28.16c0 1.024-1.024 2.048-2.048 2.048-48.128 2.56-131.072 18.944-196.096 78.848L232.448 76.8c-10.24-12.8-29.696-16.384-46.08-6.656h-0.512c-12.8 10.24-16.384 33.28-6.144 46.08l602.112 859.648c10.24 12.8 29.696 16.384 46.08 6.656h0.512c12.8-10.24 16.384-33.28 6.144-46.08l-33.792-48.128h97.792c43.008 0.512 118.784-19.456 43.008-111.616z m-324.096 56.832L245.76 331.776c-1.536-2.56-4.096-5.632-5.632-8.192l-1.024-1.024c-14.848-18.432-44.032-9.728-46.08 13.312-1.536 17.92-2.048 36.864-2.048 57.344 0 152.576-39.936 294.4-102.4 377.344C25.6 849.92 45.568 889.856 108.032 889.856h484.864c27.136 0 41.984-30.208 27.136-52.224-0.512-2.048-2.048-3.072-2.56-4.096z m-8.704 91.648H414.72c-1.024 0-2.048 1.024-2.048 2.048 0.512 15.36 9.216 96.768 98.816 96.768s98.304-81.408 98.816-96.768c0.512-1.024-0.512-2.048-1.536-2.048z" p-id="20400" fill="#bfbfbf" data-spm-anchor-id="a313x.7781069.0.i12" class="selected"></path></svg>