<?xml version="1.0" standalone="no"?><!DOCTYPE svg PUBLIC "-//W3C//DTD SVG 1.1//EN" "http://www.w3.org/Graphics/SVG/1.1/DTD/svg11.dtd"><svg t="1533271287796" class="icon" style="" viewBox="0 0 1024 1024" version="1.1" xmlns="http://www.w3.org/2000/svg" p-id="14539" xmlns:xlink="http://www.w3.org/1999/xlink" width="50" height="50"><defs><style type="text/css"></style></defs><path d="M0 0h1024v1024H0z" fill="#5D93E1" p-id="14540"></path><path d="M562.538912 266.313695c-6.213505 0-12.138009 2.456502-16.545262 6.863755L273.1052 545.99365c-9.103507 9.103507-9.103507 23.914768 0 33.090524l171.810626 171.810626c9.103507 9.103507 23.914768 9.103507 33.090524 0l272.8162-272.8162c4.407253-4.407253 6.863755-10.331758 6.863755-16.545262V286.61596c0-11.198758-9.103507-20.302265-20.302265-20.302265h-174.845128z m80.558809 159.817117c-23.625767 0.722501-42.916531-18.568264-42.194031-42.194031 0.65025-21.386016 18.134763-38.798278 39.520779-39.520779 23.625767-0.722501 42.916531 18.568264 42.194031 42.194031-0.65025 21.386016-18.062513 38.798278-39.520779 39.520779z" fill="#FFFFFF" p-id="14541"></path></svg>