<?xml version="1.0" standalone="no"?><!DOCTYPE svg PUBLIC "-//W3C//DTD SVG 1.1//EN" "http://www.w3.org/Graphics/SVG/1.1/DTD/svg11.dtd"><svg t="1533027596598" class="icon" style="" viewBox="0 0 1024 1024" version="1.1" xmlns="http://www.w3.org/2000/svg" p-id="5506" xmlns:xlink="http://www.w3.org/1999/xlink" width="64" height="64"><defs><style type="text/css"></style></defs><path d="M233.60120043 484.24606983c-0.63953613 1.28004125-1.75775537 2.39922949-2.24031444 3.67636376-11.19769629 23.35469679-7.51842554 52.14545068 12.31494652 70.86060352l452.02801465 427.55606763c24.63376904 23.35469678 63.50206201 22.23357056 86.85675881-2.3992295s22.23357056-63.50206201-2.39922951-86.85675878l-405.64323412-383.73040064 404.04148682-389.3273108c24.47291602-23.51264282 25.11148315-62.38190479 1.59787133-86.85675878-11.99517846-12.47676855-28.15218676-18.87503686-44.14737305-18.87503686-15.35661914 0-30.7103313 5.75776317-42.54756371 17.27522754l-447.8690918 431.71305248c-0.79942016 0.79942016-1.12112623 2.07849243-2.07849244 2.87888159-0.63953613 0.63953613-1.28004125 1.12112623-2.07849242 1.75775538-3.67636377 3.67636377-5.43896412 8.15796167-7.83625562 12.31494653v0zM233.60120043 484.24606983z" p-id="5507" fill="#0de41c"></path></svg>